<svg width="822" height="723" xmlns="http://www.w3.org/2000/svg" xmlns:xlink="http://www.w3.org/1999/xlink" overflow="hidden"><defs><clipPath id="clip0"><rect x="109" y="-1" width="822" height="723"/></clipPath></defs><g clip-path="url(#clip0)" transform="translate(-109 1)"><path d="M167 46.7708C167 20.94 187.94-1.73544e-14 213.771-2.31392e-14L847.229 0C873.06-5.7848e-15 894 20.94 894 46.7708L894 673.229C894 699.06 873.06 720 847.229 720L213.771 720C187.94 720 167 699.06 167 673.229Z" fill="#44546A" fill-rule="evenodd"/><text fill="#FFFFFF" font-family="Bookman Old Style,Bookman Old Style_MSFontService,sans-serif" font-style="italic" font-weight="600" font-size="184" transform="translate(220.084 347)">Coffee<tspan x="123.247" y="221">Pa</tspan><tspan x="366.247" y="221">y</tspan></text><path d="M292.173 163.856C394.171 22.6863 593.857-10.8778 738.184 88.889 882.511 188.656 916.826 383.974 814.828 525.144 794.482 553.303 769.52 577.98 740.948 598.179L729.641 582.875C864.426 487.858 894.831 304.107 797.551 172.456 700.272 40.8051 512.146 11.1075 377.36 106.125 350.474 125.078 326.979 148.24 307.825 174.676Z" stroke="#4472C4" stroke-width="1.33333" stroke-miterlimit="8" fill="#4472C4" fill-rule="evenodd"/></g></svg>